<svg id="WHITE" xmlns="http://www.w3.org/2000/svg" viewBox="0 0 1920 600"><defs><style>.cls-1{fill:#fff;}</style></defs><title>oneplusnoone_white</title><path class="cls-1" d="M478.6,161.8v280H413.8v-228h-56v-52Z"/><path class="cls-1" d="M727,326.2H657.4v68H605.8v-68H536.6V277.4h69.2v-68h51.6v68H727Z"/><path class="cls-1" d="M1041.4,161.8v280H988.2l-139.6-170v170h-64v-280h53.6l139.2,170v-170Z"/><path class="cls-1" d="M1164.8,427.8q-35-18.81-54.8-51.8t-19.8-74.2q0-41.21,19.8-74.2t54.8-51.8q35-18.81,78.6-18.8t78.4,18.8a141.36,141.36,0,0,1,54.8,51.8q20,33,20,74.2t-20,74.2a141.43,141.43,0,0,1-54.8,51.8q-34.8,18.79-78.4,18.8T1164.8,427.8ZM1288.2,380a81.83,81.83,0,0,0,31.4-31.8q11.4-20.4,11.4-46.4t-11.4-46.4a81.83,81.83,0,0,0-31.4-31.8q-20-11.4-44.8-11.4t-44.8,11.4a81.76,81.76,0,0,0-31.4,31.8q-11.4,20.4-11.4,46.4t11.4,46.4a81.76,81.76,0,0,0,31.4,31.8q20,11.4,44.8,11.4T1288.2,380Z"/><path class="cls-1" d="M1531.8,161.8v280H1467v-228h-56v-52Z"/></svg>